<mxfile host="app.diagrams.net" modified="2022-12-12T13:15:51.698Z" agent="5.0 (Windows NT 10.0; Win64; x64) AppleWebKit/537.36 (KHTML, like Gecko) Chrome/108.0.0.0 Safari/537.36" version="20.6.0" etag="ixjXGvhNUQyV2VTpIbIl" type="github">
  <diagram id="7t059XTQvRhIANl9sV9-" name="Page-1">
    <mxGraphModel dx="1158" dy="581" grid="1" gridSize="10" guides="1" tooltips="1" connect="1" arrows="1" fold="1" page="1" pageScale="1" pageWidth="850" pageHeight="1100" math="0" shadow="0">
      <root>
        <mxCell id="0" />
        <mxCell id="1" parent="0" />
        <mxCell id="sFP-Lin7kq_l2kctVGor-20" value="VMWare" style="rounded=0;whiteSpace=wrap;html=1;dashed=1;align=left;verticalAlign=top;" vertex="1" parent="1">
          <mxGeometry x="10" y="320" width="500" height="150" as="geometry" />
        </mxCell>
        <mxCell id="sFP-Lin7kq_l2kctVGor-41" value="Oracle App VLAN" style="rounded=0;whiteSpace=wrap;html=1;verticalAlign=top;" vertex="1" parent="1">
          <mxGeometry x="105" y="330" width="380" height="100" as="geometry" />
        </mxCell>
        <mxCell id="sFP-Lin7kq_l2kctVGor-40" value="Oracle App VLAN" style="rounded=0;whiteSpace=wrap;html=1;verticalAlign=top;" vertex="1" parent="1">
          <mxGeometry x="110" y="340" width="380" height="100" as="geometry" />
        </mxCell>
        <mxCell id="sFP-Lin7kq_l2kctVGor-35" value="" style="group" vertex="1" connectable="0" parent="1">
          <mxGeometry x="450" y="580" width="347.5" height="122.5" as="geometry" />
        </mxCell>
        <mxCell id="sFP-Lin7kq_l2kctVGor-22" value="OLVM Cluster" style="rounded=0;whiteSpace=wrap;html=1;dashed=1;align=right;verticalAlign=top;" vertex="1" parent="sFP-Lin7kq_l2kctVGor-35">
          <mxGeometry x="-340" y="-27.5" width="687.5" height="150" as="geometry" />
        </mxCell>
        <mxCell id="sFP-Lin7kq_l2kctVGor-24" value="VLANS" style="rounded=0;whiteSpace=wrap;html=1;verticalAlign=top;" vertex="1" parent="sFP-Lin7kq_l2kctVGor-35">
          <mxGeometry x="10" y="10" width="195" height="80" as="geometry" />
        </mxCell>
        <mxCell id="sFP-Lin7kq_l2kctVGor-25" value="" style="rounded=0;whiteSpace=wrap;html=1;verticalAlign=top;" vertex="1" parent="sFP-Lin7kq_l2kctVGor-35">
          <mxGeometry x="25" y="16.25" width="195" height="83.75" as="geometry" />
        </mxCell>
        <mxCell id="sFP-Lin7kq_l2kctVGor-26" value="DB &amp;amp; Backup VLANS" style="rounded=0;whiteSpace=wrap;html=1;verticalAlign=top;" vertex="1" parent="sFP-Lin7kq_l2kctVGor-35">
          <mxGeometry x="40" y="23.75" width="195" height="86.25" as="geometry" />
        </mxCell>
        <mxCell id="sFP-Lin7kq_l2kctVGor-27" value="" style="rounded=1;whiteSpace=wrap;html=1;" vertex="1" parent="sFP-Lin7kq_l2kctVGor-35">
          <mxGeometry x="50" y="53.75" width="55" height="27.5" as="geometry" />
        </mxCell>
        <mxCell id="sFP-Lin7kq_l2kctVGor-28" value="" style="rounded=1;whiteSpace=wrap;html=1;" vertex="1" parent="sFP-Lin7kq_l2kctVGor-35">
          <mxGeometry x="60" y="63.75" width="55" height="27.5" as="geometry" />
        </mxCell>
        <mxCell id="sFP-Lin7kq_l2kctVGor-29" value="" style="rounded=1;whiteSpace=wrap;html=1;" vertex="1" parent="sFP-Lin7kq_l2kctVGor-35">
          <mxGeometry x="70" y="73.75" width="55" height="27.5" as="geometry" />
        </mxCell>
        <mxCell id="sFP-Lin7kq_l2kctVGor-30" value="" style="rounded=1;whiteSpace=wrap;html=1;" vertex="1" parent="sFP-Lin7kq_l2kctVGor-35">
          <mxGeometry x="132.5" y="53.75" width="55" height="27.5" as="geometry" />
        </mxCell>
        <mxCell id="sFP-Lin7kq_l2kctVGor-31" value="" style="rounded=1;whiteSpace=wrap;html=1;" vertex="1" parent="sFP-Lin7kq_l2kctVGor-35">
          <mxGeometry x="140" y="63.75" width="55" height="27.5" as="geometry" />
        </mxCell>
        <mxCell id="sFP-Lin7kq_l2kctVGor-32" value="" style="rounded=1;whiteSpace=wrap;html=1;" vertex="1" parent="sFP-Lin7kq_l2kctVGor-35">
          <mxGeometry x="150" y="73.75" width="55" height="27.5" as="geometry" />
        </mxCell>
        <mxCell id="sFP-Lin7kq_l2kctVGor-38" value="OLVM Mgmt VLAN" style="rounded=0;whiteSpace=wrap;html=1;verticalAlign=top;" vertex="1" parent="sFP-Lin7kq_l2kctVGor-35">
          <mxGeometry x="-325" y="-10" width="175" height="120" as="geometry" />
        </mxCell>
        <mxCell id="sFP-Lin7kq_l2kctVGor-36" value="OLVM 1" style="rounded=1;whiteSpace=wrap;html=1;verticalAlign=top;" vertex="1" parent="sFP-Lin7kq_l2kctVGor-35">
          <mxGeometry x="-307.5" y="16.25" width="120" height="60" as="geometry" />
        </mxCell>
        <mxCell id="sFP-Lin7kq_l2kctVGor-37" value="OLVM 2" style="rounded=1;whiteSpace=wrap;html=1;verticalAlign=top;" vertex="1" parent="sFP-Lin7kq_l2kctVGor-35">
          <mxGeometry x="-287.5" y="37.5" width="120" height="60" as="geometry" />
        </mxCell>
        <mxCell id="sFP-Lin7kq_l2kctVGor-19" style="edgeStyle=orthogonalEdgeStyle;rounded=0;orthogonalLoop=1;jettySize=auto;html=1;entryX=0.25;entryY=1;entryDx=0;entryDy=0;startArrow=classic;startFill=1;" edge="1" parent="1" source="sFP-Lin7kq_l2kctVGor-41" target="sFP-Lin7kq_l2kctVGor-11">
          <mxGeometry relative="1" as="geometry" />
        </mxCell>
        <mxCell id="sFP-Lin7kq_l2kctVGor-18" value="VLANS" style="rounded=0;whiteSpace=wrap;html=1;verticalAlign=top;" vertex="1" parent="1">
          <mxGeometry x="120" y="350" width="380" height="110" as="geometry" />
        </mxCell>
        <mxCell id="sFP-Lin7kq_l2kctVGor-7" value="VLAN 1" style="rounded=0;whiteSpace=wrap;html=1;verticalAlign=top;" vertex="1" parent="1">
          <mxGeometry x="200" y="80" width="260" height="100" as="geometry" />
        </mxCell>
        <mxCell id="sFP-Lin7kq_l2kctVGor-1" value="Emineo" style="ellipse;shape=cloud;whiteSpace=wrap;html=1;" vertex="1" parent="1">
          <mxGeometry x="630" y="155" width="120" height="80" as="geometry" />
        </mxCell>
        <mxCell id="sFP-Lin7kq_l2kctVGor-8" style="edgeStyle=orthogonalEdgeStyle;rounded=0;orthogonalLoop=1;jettySize=auto;html=1;entryX=1;entryY=0.5;entryDx=0;entryDy=0;startArrow=classic;startFill=1;" edge="1" parent="1" source="sFP-Lin7kq_l2kctVGor-2" target="sFP-Lin7kq_l2kctVGor-7">
          <mxGeometry relative="1" as="geometry" />
        </mxCell>
        <mxCell id="sFP-Lin7kq_l2kctVGor-2" value="VPN" style="rounded=0;whiteSpace=wrap;html=1;" vertex="1" parent="1">
          <mxGeometry x="520" y="180" width="50" height="30" as="geometry" />
        </mxCell>
        <mxCell id="sFP-Lin7kq_l2kctVGor-3" value="" style="shape=flexArrow;endArrow=classic;startArrow=classic;html=1;rounded=0;entryX=0.07;entryY=0.4;entryDx=0;entryDy=0;entryPerimeter=0;exitX=1;exitY=0.5;exitDx=0;exitDy=0;" edge="1" parent="1" source="sFP-Lin7kq_l2kctVGor-2" target="sFP-Lin7kq_l2kctVGor-1">
          <mxGeometry width="100" height="100" relative="1" as="geometry">
            <mxPoint x="400" y="290" as="sourcePoint" />
            <mxPoint x="500" y="190" as="targetPoint" />
          </mxGeometry>
        </mxCell>
        <mxCell id="sFP-Lin7kq_l2kctVGor-5" value="Emineo jump&lt;br&gt;Windows" style="rounded=1;whiteSpace=wrap;html=1;" vertex="1" parent="1">
          <mxGeometry x="343" y="110" width="105" height="60" as="geometry" />
        </mxCell>
        <mxCell id="sFP-Lin7kq_l2kctVGor-6" value="Emineo jump&lt;br&gt;Linux" style="rounded=1;whiteSpace=wrap;html=1;" vertex="1" parent="1">
          <mxGeometry x="210" y="110" width="105" height="60" as="geometry" />
        </mxCell>
        <mxCell id="sFP-Lin7kq_l2kctVGor-12" style="edgeStyle=orthogonalEdgeStyle;rounded=0;orthogonalLoop=1;jettySize=auto;html=1;entryX=0.5;entryY=1;entryDx=0;entryDy=0;startArrow=classic;startFill=1;" edge="1" parent="1" source="sFP-Lin7kq_l2kctVGor-11" target="sFP-Lin7kq_l2kctVGor-7">
          <mxGeometry relative="1" as="geometry" />
        </mxCell>
        <mxCell id="sFP-Lin7kq_l2kctVGor-33" style="edgeStyle=orthogonalEdgeStyle;rounded=0;orthogonalLoop=1;jettySize=auto;html=1;exitX=0.901;exitY=1.043;exitDx=0;exitDy=0;entryX=0.478;entryY=-0.025;entryDx=0;entryDy=0;startArrow=classic;startFill=1;entryPerimeter=0;exitPerimeter=0;" edge="1" parent="1" source="sFP-Lin7kq_l2kctVGor-11" target="sFP-Lin7kq_l2kctVGor-24">
          <mxGeometry relative="1" as="geometry">
            <mxPoint x="557.5" y="580" as="targetPoint" />
          </mxGeometry>
        </mxCell>
        <mxCell id="sFP-Lin7kq_l2kctVGor-11" value="FW" style="rounded=0;whiteSpace=wrap;html=1;" vertex="1" parent="1">
          <mxGeometry x="360" y="250" width="230" height="30" as="geometry" />
        </mxCell>
        <mxCell id="sFP-Lin7kq_l2kctVGor-14" value="OEM" style="rounded=1;whiteSpace=wrap;html=1;" vertex="1" parent="1">
          <mxGeometry x="315" y="410" width="80" height="40" as="geometry" />
        </mxCell>
        <mxCell id="sFP-Lin7kq_l2kctVGor-15" value="OEM/RMAN DB" style="rounded=1;whiteSpace=wrap;html=1;" vertex="1" parent="1">
          <mxGeometry x="405" y="410" width="80" height="40" as="geometry" />
        </mxCell>
        <mxCell id="sFP-Lin7kq_l2kctVGor-17" value="OLVM&lt;br&gt;Manager" style="rounded=1;whiteSpace=wrap;html=1;" vertex="1" parent="1">
          <mxGeometry x="405" y="360" width="80" height="40" as="geometry" />
        </mxCell>
        <mxCell id="sFP-Lin7kq_l2kctVGor-39" style="edgeStyle=orthogonalEdgeStyle;rounded=0;orthogonalLoop=1;jettySize=auto;html=1;entryX=0.75;entryY=1;entryDx=0;entryDy=0;startArrow=classic;startFill=1;" edge="1" parent="1" source="sFP-Lin7kq_l2kctVGor-38" target="sFP-Lin7kq_l2kctVGor-11">
          <mxGeometry relative="1" as="geometry">
            <Array as="points">
              <mxPoint x="213" y="490" />
              <mxPoint x="533" y="490" />
            </Array>
          </mxGeometry>
        </mxCell>
        <mxCell id="sFP-Lin7kq_l2kctVGor-42" value="DG&lt;br&gt;Observers" style="rounded=1;whiteSpace=wrap;html=1;" vertex="1" parent="1">
          <mxGeometry x="200" y="390" width="80" height="40" as="geometry" />
        </mxCell>
        <mxCell id="sFP-Lin7kq_l2kctVGor-43" value="DG&lt;br&gt;Observers" style="rounded=1;whiteSpace=wrap;html=1;" vertex="1" parent="1">
          <mxGeometry x="210" y="400" width="80" height="40" as="geometry" />
        </mxCell>
        <mxCell id="sFP-Lin7kq_l2kctVGor-44" value="DG&lt;br&gt;Observers" style="rounded=1;whiteSpace=wrap;html=1;" vertex="1" parent="1">
          <mxGeometry x="220" y="410" width="80" height="40" as="geometry" />
        </mxCell>
      </root>
    </mxGraphModel>
  </diagram>
</mxfile>
